<svg xmlns="http://www.w3.org/2000/svg" width="1280" height="700" viewBox="0 0 1280 700" role="img" aria-labelledby="t d">
  <title id="t">Hire MiddleSugar7000, full-stack developer: landing pages, SaaS MVPs, APIs and AI integrations</title>
  <desc id="d">Full-stack developer for hire. Landing page from $450 in 48 to 72 hours, web app or SaaS MVP from $950 in 4 to 6 days, API, AI or automation from $650 in 3 to 4 days. Next.js, TypeScript, PostgreSQL, Cloudflare. Portfolio: middlesugar7000.xyz</desc>
  <defs>
    <style>
      .sans{font-family:'Inter','Segoe UI',system-ui,-apple-system,'Helvetica Neue',Arial,sans-serif}
      .mono{font-family:'JetBrains Mono','Cascadia Code','SF Mono',Consolas,'Liberation Mono',monospace}
      .drift{animation:drift 16s ease-in-out infinite alternate}
      .drift2{animation:drift2 20s ease-in-out infinite alternate}
      .pulse{animation:pulse 2.4s ease-in-out infinite}
      .float{animation:float 6s ease-in-out infinite}
      .float2{animation:float 7s ease-in-out -2s infinite}
      .float3{animation:float 8s ease-in-out -4s infinite}
      .rb{animation:rb 6s linear infinite}
      @keyframes drift{to{transform:translate(-70px,30px)}}
      @keyframes drift2{to{transform:translate(60px,-20px)}}
      @keyframes pulse{50%{opacity:.35}}
      @keyframes float{50%{transform:translateY(-8px)}}
      @keyframes rb{to{transform:translateX(-50%)}}
    </style>
    <pattern id="grid" width="48" height="48" patternUnits="userSpaceOnUse"><path d="M48 0H0V48" fill="none" stroke="#fff" stroke-opacity=".045"/></pattern>
    <radialGradient id="gm" cx="78%" cy="20%" r="70%"><stop offset="0" stop-color="#fff"/><stop offset="1" stop-color="#fff" stop-opacity="0"/></radialGradient>
    <mask id="m"><rect width="1280" height="700" fill="url(#gm)"/></mask>
    <filter id="b120" x="-60%" y="-60%" width="220%" height="220%"><feGaussianBlur stdDeviation="75"/></filter>
    <filter id="b14" x="-50%" y="-150%" width="200%" height="400%"><feGaussianBlur stdDeviation="13"/></filter>
    <filter id="noise"><feTurbulence type="fractalNoise" baseFrequency=".9" numOctaves="2" stitchTiles="stitch"/><feColorMatrix values="0 0 0 0 1  0 0 0 0 1  0 0 0 0 1  0 0 0 .05 0"/></filter>
    <linearGradient id="brand" x1="0" y1="0" x2="1" y2="1"><stop offset="0" stop-color="#FF4F8B"/><stop offset="1" stop-color="#8B6CFF"/></linearGradient>
    <linearGradient id="brandText" x1="0" x2="1"><stop offset="0" stop-color="#FF7AA8"/><stop offset="1" stop-color="#A994FF"/></linearGradient>
    <linearGradient id="dim" x1="0" y1="0" x2="0" y2="1"><stop offset="0" stop-color="#fff" stop-opacity=".55"/><stop offset="1" stop-color="#fff" stop-opacity=".3"/></linearGradient>
    <linearGradient id="pill" x1="0" x2="1"><stop offset="0" stop-color="#E4E1F0"/><stop offset=".72" stop-color="#fff"/></linearGradient>
    <radialGradient id="sheen" cx="28%" cy="-10%" r="75%"><stop offset="0" stop-color="#fff" stop-opacity=".09"/><stop offset="1" stop-color="#fff" stop-opacity="0"/></radialGradient>
    <linearGradient id="feat" x1="0" y1="0" x2="1" y2="1"><stop offset="0" stop-color="#FF4F8B" stop-opacity=".9"/><stop offset=".5" stop-color="#8B6CFF" stop-opacity=".5"/><stop offset="1" stop-color="#8B6CFF" stop-opacity="0"/></linearGradient>
    <linearGradient id="rainbow" x1="0" x2="1">
      <stop offset="0" stop-color="#FF4F8B"/><stop offset=".125" stop-color="#8B6CFF"/><stop offset=".25" stop-color="#30E3FF"/><stop offset=".375" stop-color="#8B6CFF"/>
      <stop offset=".5" stop-color="#FF4F8B"/><stop offset=".625" stop-color="#8B6CFF"/><stop offset=".75" stop-color="#30E3FF"/><stop offset=".875" stop-color="#8B6CFF"/><stop offset="1" stop-color="#FF4F8B"/>
    </linearGradient>
    <clipPath id="frame"><rect width="1280" height="700" rx="28"/></clipPath>
    <clipPath id="bclip"><rect width="300" height="58" rx="29"/></clipPath>
  </defs>

  <g clip-path="url(#frame)">
    <rect width="1280" height="700" fill="#0E1018"/>
    <rect width="1280" height="700" fill="url(#grid)" mask="url(#m)"/>
    <g class="drift"><ellipse cx="1050" cy="80" rx="330" ry="210" fill="#8B6CFF" filter="url(#b120)" opacity=".85"/></g>
    <g class="drift2"><ellipse cx="760" cy="-40" rx="260" ry="150" fill="#FF4F8B" filter="url(#b120)" opacity=".75"/></g>
    <ellipse cx="900" cy="-120" rx="300" ry="130" fill="#0E1018" filter="url(#b120)"/>
    <ellipse cx="300" cy="820" rx="760" ry="300" fill="#0E1018" filter="url(#b120)"/>

    <!-- LEFT: pitch -->
    <g transform="translate(72 0)">
      <!-- brand row -->
      <g transform="translate(0 64)">
        <rect width="44" height="44" rx="12" fill="#12141d" stroke="#fff" stroke-opacity=".16"/>
        <g transform="translate(6 6) scale(1)">
          <path d="M16 6.5 25 11l-9 4.5L7 11z" fill="url(#brand)"/>
          <path d="M7 15.2 16 19.7l9-4.5" fill="none" stroke="#F3F4F8" stroke-width="2" stroke-linejoin="round" stroke-linecap="round"/>
          <path d="M7 20 16 24.5l9-4.5" fill="none" stroke="#F3F4F8" stroke-opacity=".45" stroke-width="2" stroke-linejoin="round" stroke-linecap="round"/>
        </g>
        <text x="60" y="20" class="sans" font-size="20" font-weight="600" fill="#fff" letter-spacing="-.3">MiddleSugar7000</text>
        <text x="60" y="40" class="mono" font-size="13" fill="#fff" fill-opacity=".55">full-stack developer · for hire</text>
      </g>
      <!-- availability -->
      <g transform="translate(0 140)">
        <rect width="300" height="34" rx="17" fill="#fff" fill-opacity=".05" stroke="#fff" stroke-opacity=".1"/>
        <circle cx="20" cy="17" r="4.5" fill="#3BE38B" class="pulse"/>
        <text x="36" y="22" class="sans" font-size="14" fill="#fff" fill-opacity=".85">Booking new projects for October</text>
      </g>
      <!-- headline -->
      <text x="0" y="240" class="sans" font-size="54" font-weight="600" letter-spacing="-2.2" fill="#fff">Need this built</text>
      <text x="0" y="300" class="sans" font-size="54" font-weight="600" letter-spacing="-2.2" fill="#fff">for real? <tspan fill="url(#brandText)">Hire me.</tspan></text>
      <text class="sans" font-size="18" fill="#fff" fill-opacity=".62">
        <tspan x="0" y="350">I design, build and launch landing pages, SaaS</tspan>
        <tspan x="0" y="376">products, APIs and AI integrations, end to end.</tspan>
        <tspan x="0" y="402">Fixed quotes, weekly previews, you own the code.</tspan>
      </text>

      <!-- buttons (visual; README links them) -->
      <g transform="translate(0 440)">
        <g clip-path="url(#bclip)" filter="url(#b14)" opacity=".8" transform="translate(30 30) scale(.8 .55)"><g class="rb"><rect width="600" height="58" fill="url(#rainbow)"/></g></g>
        <g clip-path="url(#bclip)"><g class="rb"><rect width="600" height="58" fill="url(#rainbow)"/></g></g>
        <rect x="2" y="2" width="296" height="54" rx="27" fill="url(#pill)"/>
        <text x="138" y="36" text-anchor="middle" class="sans" font-size="17" font-weight="600" fill="#0E1018">Hire me · get a quote</text>
        <path d="M252 23l6 6-6 6" fill="none" stroke="#0E1018" stroke-width="2.2" stroke-linecap="round" stroke-linejoin="round"/>
      </g>
      <g transform="translate(318 440)">
        <rect width="224" height="58" rx="29" fill="#fff" fill-opacity=".05" stroke="#fff" stroke-opacity=".16"/>
        <text x="104" y="36" text-anchor="middle" class="sans" font-size="17" font-weight="500" fill="#fff">See my work</text>
        <path d="M178 23l6 6-6 6" fill="none" stroke="#fff" stroke-width="2.2" stroke-linecap="round" stroke-linejoin="round"/>
      </g>
      <text x="0" y="545" class="mono" font-size="14" fill="#fff" fill-opacity=".5">middlesugar7000.xyz  ·  reply within 24 hours  ·  Discord · Telegram · email</text>

      <!-- stack chips -->
      <g class="mono" font-size="13" fill="#fff" fill-opacity=".75" transform="translate(0 586)">
        <g><rect width="84" height="32" rx="8" fill="#fff" fill-opacity=".05" stroke="#fff" stroke-opacity=".1"/><text x="42" y="21" text-anchor="middle">Next.js</text></g>
        <g transform="translate(94 0)"><rect width="108" height="32" rx="8" fill="#fff" fill-opacity=".05" stroke="#fff" stroke-opacity=".1"/><text x="54" y="21" text-anchor="middle">TypeScript</text></g>
        <g transform="translate(212 0)"><rect width="108" height="32" rx="8" fill="#fff" fill-opacity=".05" stroke="#fff" stroke-opacity=".1"/><text x="54" y="21" text-anchor="middle">PostgreSQL</text></g>
        <g transform="translate(330 0)"><rect width="108" height="32" rx="8" fill="#fff" fill-opacity=".05" stroke="#fff" stroke-opacity=".1"/><text x="54" y="21" text-anchor="middle">Cloudflare</text></g>
        <g transform="translate(448 0)"><rect width="84" height="32" rx="8" fill="#fff" fill-opacity=".05" stroke="#fff" stroke-opacity=".1"/><text x="42" y="21" text-anchor="middle">Stripe</text></g>
        <g transform="translate(542 0)"><rect width="100" height="32" rx="8" fill="#fff" fill-opacity=".05" stroke="#fff" stroke-opacity=".1"/><text x="50" y="21" text-anchor="middle">OpenAI</text></g>
      </g>
    </g>

    <!-- RIGHT: pricing cards -->
    <g class="sans" transform="translate(770 70)">
      <!-- card 1 -->
      <g class="float">
        <rect width="440" height="148" rx="20" fill="#161925" stroke="#fff" stroke-opacity=".09"/>
        <rect width="440" height="148" rx="20" fill="url(#sheen)"/>
        <g transform="translate(24 24)">
          <rect width="44" height="44" rx="12" fill="#fff" fill-opacity=".06" stroke="#fff" stroke-opacity=".1"/>
          <g fill="none" stroke="#FF7AA8" stroke-width="2" stroke-linecap="round" stroke-linejoin="round" transform="translate(11 11)"><rect x="1" y="2" width="20" height="16" rx="3"/><path d="M1 7h20M6 12h7"/></g>
        </g>
        <text x="84" y="44" font-size="19" font-weight="600" fill="#fff" letter-spacing="-.3">Landing page</text>
        <text x="84" y="66" font-size="14" fill="#fff" fill-opacity=".55">Custom design, SEO + GEO, your domain</text>
        <text x="24" y="122" font-size="38" font-weight="600" fill="#fff" letter-spacing="-1.4">$450<tspan font-size="15" fill="#fff" fill-opacity=".5" letter-spacing="0" dx="8">from</tspan></text>
        <g transform="translate(296 98)"><rect width="120" height="30" rx="15" fill="#fff" fill-opacity=".06" stroke="#fff" stroke-opacity=".1"/><text x="60" y="20" text-anchor="middle" class="mono" font-size="12.5" fill="#fff" fill-opacity=".8">48–72 hours</text></g>
      </g>
      <!-- card 2 featured -->
      <g transform="translate(-24 176)"><g class="float2">
        <rect x="-1" y="-1" width="490" height="170" rx="22" fill="url(#feat)"/>
        <rect width="488" height="168" rx="21" fill="#191A2A"/>
        <rect width="488" height="168" rx="21" fill="url(#sheen)"/>
        <g transform="translate(24 26)">
          <rect width="44" height="44" rx="12" fill="url(#brand)"/>
          <g fill="none" stroke="#fff" stroke-width="2" stroke-linecap="round" stroke-linejoin="round" transform="translate(11 11)"><ellipse cx="11" cy="5" rx="8" ry="3"/><path d="M3 5v12c0 1.7 3.6 3 8 3s8-1.3 8-3V5M3 11c0 1.7 3.6 3 8 3s8-1.3 8-3"/></g>
        </g>
        <text x="84" y="46" font-size="20" font-weight="600" fill="#fff" letter-spacing="-.3">Web app or SaaS MVP</text>
        <text x="84" y="69" font-size="14" fill="#fff" fill-opacity=".6">Auth, Postgres, dashboard, Stripe / Dodo</text>
        <g transform="translate(352 22)"><rect width="112" height="26" rx="13" fill="#FF4F8B" fill-opacity=".16" stroke="#FF4F8B" stroke-opacity=".5"/><text x="56" y="18" text-anchor="middle" class="mono" font-size="12" fill="#FF9DBE">most booked</text></g>
        <text x="24" y="138" font-size="42" font-weight="600" fill="#fff" letter-spacing="-1.6">$950<tspan font-size="15" fill="#fff" fill-opacity=".5" letter-spacing="0" dx="8">from</tspan></text>
        <g transform="translate(344 114)"><rect width="120" height="30" rx="15" fill="#fff" fill-opacity=".06" stroke="#fff" stroke-opacity=".1"/><text x="60" y="20" text-anchor="middle" class="mono" font-size="12.5" fill="#fff" fill-opacity=".8">4–6 days</text></g>
      </g></g>
      <!-- card 3 -->
      <g transform="translate(0 372)"><g class="float3">
        <rect width="440" height="148" rx="20" fill="#161925" stroke="#fff" stroke-opacity=".09"/>
        <rect width="440" height="148" rx="20" fill="url(#sheen)"/>
        <g transform="translate(24 24)">
          <rect width="44" height="44" rx="12" fill="#fff" fill-opacity=".06" stroke="#fff" stroke-opacity=".1"/>
          <g fill="none" stroke="#A994FF" stroke-width="2" stroke-linecap="round" stroke-linejoin="round" transform="translate(11 11)"><rect x="4" y="4" width="14" height="14" rx="3"/><path d="M8 1v3M14 1v3M8 18v3M14 18v3M1 8h3M1 14h3M18 8h3M18 14h3"/></g>
        </g>
        <text x="84" y="44" font-size="19" font-weight="600" fill="#fff" letter-spacing="-.3">API, AI or automation</text>
        <text x="84" y="66" font-size="14" fill="#fff" fill-opacity=".55">LLM routing, Workers, webhooks, scripts</text>
        <text x="24" y="122" font-size="38" font-weight="600" fill="#fff" letter-spacing="-1.4">$650<tspan font-size="15" fill="#fff" fill-opacity=".5" letter-spacing="0" dx="8">from</tspan></text>
        <g transform="translate(296 98)"><rect width="120" height="30" rx="15" fill="#fff" fill-opacity=".06" stroke="#fff" stroke-opacity=".1"/><text x="60" y="20" text-anchor="middle" class="mono" font-size="12.5" fill="#fff" fill-opacity=".8">3–4 days</text></g>
      </g></g>
      <!-- shipped products -->
      <text x="0" y="566" class="mono" font-size="13" fill="#fff" fill-opacity=".45">SHIPPED  ·  curtly.dev  ·  draftify.site  ·  Isohel  ·  VOLT Arc</text>
    </g>

    <rect width="1280" height="700" filter="url(#noise)" opacity=".7"/>
  </g>
  <rect x=".5" y=".5" width="1279" height="699" rx="27.5" fill="none" stroke="#fff" stroke-opacity=".08"/>
</svg>
